<?xml version="1.0" ?><svg height="24px" version="1.1" viewBox="0 0 24 24" width="24px" xmlns="http://www.w3.org/2000/svg" xmlns:sketch="http://www.bohemiancoding.com/sketch/ns" xmlns:xlink="http://www.w3.org/1999/xlink"><title/><desc/><defs/><g fill="none" fill-rule="evenodd" id="miu" stroke="none" stroke-width="1"><g id="Artboard-1" transform="translate(-471.000000, -443.000000)"><g id="slice" transform="translate(215.000000, 119.000000)"/><path class="placemark-svg" d="M479.5,466 C479.5,466 487,456.127718 487,451.812818 C487,447.497918 484.518799,443.999999 479.5,444 C474.481201,444.000001 472,447.497918 472,451.812818 C472,456.127718 479.5,466 479.5,466 L479.5,466 Z M479.5,454.5 C481.709139,454.5 483.5,452.709139 483.5,450.5 C483.5,448.290861 481.709139,446.5 479.5,446.5 C477.290861,446.5 475.5,448.290861 475.5,450.5 C475.5,452.709139 477.290861,454.5 479.5,454.5 L479.5,454.5 Z" fill="#3a88c4" id="map-location-pin-map-marker-glyph"/></g></g></svg>